<?xml version="1.0" encoding="utf-8"?>
<!-- Generator: Adobe Illustrator 21.0.2, SVG Export Plug-In . SVG Version: 6.00 Build 0)  -->
<svg version="1.1"
	 id="svg2" inkscape:version="0.92.2 (5c3e80d, 2017-08-06)" sodipodi:docname="BMW (Monochrome).svg" xmlns:cc="http://creativecommons.org/ns#" xmlns:dc="http://purl.org/dc/elements/1.1/" xmlns:inkscape="http://www.inkscape.org/namespaces/inkscape" xmlns:rdf="http://www.w3.org/1999/02/22-rdf-syntax-ns#" xmlns:sodipodi="http://sodipodi.sourceforge.net/DTD/sodipodi-0.dtd" xmlns:svg="http://www.w3.org/2000/svg"
	 xmlns="http://www.w3.org/2000/svg" xmlns:xlink="http://www.w3.org/1999/xlink" x="0px" y="0px" viewBox="0 0 50 50"
	 style="enable-background:new 0 0 50 50;" xml:space="preserve">
<sodipodi:namedview  bordercolor="#666666" borderopacity="1" fit-margin-bottom="0" fit-margin-left="0" fit-margin-right="0" fit-margin-top="0" gridtolerance="10" guidetolerance="10" id="namedview26" inkscape:current-layer="svg2" inkscape:cx="786.90827" inkscape:cy="574.78408" inkscape:pageopacity="0" inkscape:pageshadow="2" inkscape:window-height="705" inkscape:window-maximized="1" inkscape:window-width="1366" inkscape:window-x="-8" inkscape:window-y="-8" inkscape:zoom="0.5" objecttolerance="10" pagecolor="#ffffff" showgrid="false">
	</sodipodi:namedview>
<g id="Layer_x0020_1" transform="matrix(4.136403,0,0,4.136403,-0.09038039,-946.24831)">
	<path id="path10" inkscape:connector-curvature="0" d="M6.1,228.8c-3.3,0-6,2.7-6,6c0,3.3,2.7,6,6,6c3.3,0,6-2.7,6-6
		C12.1,231.5,9.4,228.8,6.1,228.8z M6.1,228.9c3.3,0,5.9,2.6,5.9,5.9c0,3.3-2.6,5.9-5.9,5.9c-3.3,0-5.9-2.6-5.9-5.9
		C0.1,231.5,2.8,228.9,6.1,228.9z"/>
	<path id="path12" d="M6.1,229c-3.2,0-5.8,2.6-5.8,5.8c0,3.2,2.6,5.8,5.8,5.8c3.2,0,5.8-2.6,5.8-5.8h0C11.9,231.6,9.3,229,6.1,229z
		 M5.7,229.3l0.4,1.2l0.4-1.2l0.5,0.1l0.1,1.6l-0.4-0.1l0-1.1l-0.4,1.1H5.9l-0.4-1.1l0,1.1L5.1,231l0.1-1.6L5.7,229.3z M9.7,230.5
		l0.3,0.3l-0.6,0.7l0.9-0.4l0.3,0.3l-0.6,0.8l0.9-0.4l0.2,0.4l-1.5,0.7l-0.2-0.4l0.7-0.9L9,232.1l-0.3-0.3L9.7,230.5z M2.4,230.7
		c0.1,0,0.2,0,0.3,0.1c0.1,0.1,0.1,0.1,0.1,0.2c0,0.1,0,0.1,0,0.2c0,0,0,0,0,0c0.1-0.1,0.3-0.1,0.4,0c0.1,0.1,0.2,0.2,0.3,0.4
		c0,0.1,0,0.1,0,0.2c0,0.1-0.1,0.2-0.2,0.3c-0.1,0.2-0.3,0.3-0.4,0.5c-0.1,0.1-0.2,0.3-0.3,0.4c0,0,0,0,0,0c0,0,0,0,0,0
		c0,0-0.1-0.1-0.1-0.1c-0.2-0.1-0.3-0.3-0.5-0.4c-0.2-0.1-0.3-0.3-0.5-0.4c0,0-0.1-0.1-0.1-0.1c0,0,0,0,0,0c0,0,0,0,0,0
		c0.1-0.1,0.2-0.3,0.3-0.4c0.1-0.2,0.3-0.3,0.4-0.5c0,0,0.1-0.1,0.1-0.1c0-0.1,0.1-0.1,0.2-0.1C2.3,230.7,2.4,230.7,2.4,230.7z
		 M2.4,231.1C2.4,231.1,2.3,231.1,2.4,231.1c-0.1,0-0.2,0.1-0.2,0.1c-0.1,0.2-0.3,0.3-0.4,0.5c0,0,0,0,0,0c0,0,0.1,0,0.1,0.1
		c0.1,0.1,0.1,0.1,0.2,0.2c0.1-0.1,0.1-0.2,0.2-0.3c0.1-0.1,0.1-0.2,0.2-0.3c0,0,0.1-0.1,0.1-0.1c0-0.1,0-0.1,0-0.2
		C2.5,231.2,2.4,231.1,2.4,231.1z M6.1,231.2c2,0,3.6,1.6,3.6,3.6c0,2-1.6,3.6-3.6,3.6c-2,0-3.6-1.6-3.6-3.6
		C2.4,232.8,4.1,231.2,6.1,231.2z M2.9,231.5c-0.1,0-0.1,0-0.1,0.1c-0.1,0.1-0.1,0.1-0.2,0.2c-0.1,0.1-0.2,0.3-0.3,0.4
		c0.1,0,0.1,0.1,0.2,0.1c0,0,0.1,0.1,0.1,0.1c0,0,0,0,0,0c0,0,0,0,0,0c0.1-0.1,0.2-0.3,0.4-0.4c0-0.1,0.1-0.1,0.1-0.2
		c0-0.1,0.1-0.1,0-0.2C3.1,231.5,3,231.5,2.9,231.5z"/>
	<path id="path18" inkscape:connector-curvature="0" d="M6.1,231.3c-1.9,0-3.4,1.6-3.5,3.5h3.5V231.3z"/>
	<path id="path20" inkscape:connector-curvature="0" d="M6.1,238.3c1.9,0,3.4-1.6,3.5-3.5H6.1V238.3z"/>
</g>
</svg>
