<svg id="Layer_1" data-name="Layer 1" xmlns="http://www.w3.org/2000/svg" width="50" height="50" viewBox="0 0 50 50"><title>brand-alfaromeo</title><path d="M5.86,21.36l-1.47.49,1.25.95Zm10-13.58-1.3-.85,0,1.57ZM25.94,5.11a.47.47,0,0,0,.5-.52.48.48,0,0,0-.49-.53h0l-2,0v1Zm5.68,2.36a2.16,2.16,0,0,0,.73.14,1,1,0,0,0,1.07-.69c.22-.64-.19-1.26-1.06-1.57a2.15,2.15,0,0,0-.72-.14,1,1,0,0,0-1.07.69C30.34,6.55,30.75,7.16,31.61,7.47Zm-13,15.6V11.19a15.31,15.31,0,0,0-3.79,2.51v9.37H9.93a15.42,15.42,0,0,0,0,3.8h4.93v9.51a15.33,15.33,0,0,0,3.79,2.52v-12H23a4.91,4.91,0,0,1,.3-3.8ZM32.94,12a1.12,1.12,0,0,1-1,1.63H30a1.46,1.46,0,0,0-1,.32c-.54.46-.35,1-1.45,1h-3a4.71,4.71,0,0,0,1.58,1.78h3.72a.36.36,0,0,1,.33.23.32.32,0,0,1,0,.13.31.31,0,0,1,0,.07.36.36,0,0,1-.35.3H26a3.37,3.37,0,0,0-1.58,1.95h6.83a.81.81,0,1,1,0,1.61H27.83a4.32,4.32,0,1,0,0,8.64h4.32a.34.34,0,0,1,.33.34.33.33,0,0,1-.33.33H27.73a3.16,3.16,0,1,0,0,6.33H29.4c1.41,0,1.75.79,1.75,1.62a2,2,0,0,1-.79,1.3c.59-.22,2.57-1,2.57-2.82a2.59,2.59,0,0,0-2.59-2.59H27.61a.33.33,0,1,1,0-.67h4.61a3.93,3.93,0,0,0,0-7.86H27.76a.33.33,0,1,1,0-.67h3.68A5.78,5.78,0,0,0,37.58,19C37.58,15.22,34.53,12.74,32.94,12Zm-4.73-.34a.47.47,0,1,0-.47-.47A.47.47,0,0,0,28.21,11.62Zm16.48,9.24h-.17c-.66.12-1,.78-.84,1.7s.59,1.35,1.17,1.35l.18,0c.66-.11,1-.78.84-1.7S45.26,20.86,44.69,20.86ZM25,0A25,25,0,1,0,50,25,25,25,0,0,0,25,0Zm0,49.51A24.51,24.51,0,1,1,49.51,25,24.51,24.51,0,0,1,25,49.51Zm0-48A23.53,23.53,0,1,0,48.53,25,23.53,23.53,0,0,0,25,1.47ZM37.39,7.36a.71.71,0,0,0,.17-.58l.29.26,0,0,.87.81-.3,2.53,2.43-.54.95.88L39.36,14l-.86-.8,1.5-2-2.72.64-.09-.09.36-2.83-1.8,1.74-.86-.8ZM29.44,5.49A2,2,0,0,1,31.5,4.19a3.49,3.49,0,0,1,1.18.21,3.22,3.22,0,0,1,1.6,1.18,1.94,1.94,0,0,1,.26,1.74,2,2,0,0,1-2,1.32h0a3.56,3.56,0,0,1-1.2-.22C29.81,7.89,29,6.66,29.44,5.49ZM22.79,3.15h0l3.25,0a1.45,1.45,0,0,1,1.55,1.52,1.33,1.33,0,0,1-.73,1.28l0,0,.91,1.2H26.41l-.76-1.08H24V7.17H22.83l0-3.52a.78.78,0,0,0-.28-.51ZM14.65,5.74l3.79,2.45-1,.59-.66-.43L14.62,9.58l0,.79-1,.6-.07-4a.44.44,0,0,0-.35-.36ZM10.78,8.32l.68.65L9.27,11.34l.61.59,1.52-1.65.68.65-1.52,1.65.91.87-.8.87L8.17,11.91a.79.79,0,0,0-.46-.15h-.1ZM7.61,20.78,6.87,21,6.5,23.45l.63.48L7,25.11,3.76,22.65a.45.45,0,0,0-.23-.06.41.41,0,0,0-.28.1L3.51,21,7.79,19.6Zm.53-2L5,17.18a.76.76,0,0,0-.59,0l.66-1.32,2.73,1.43,1.33-2.65.84.44ZM25,41.11A16.11,16.11,0,1,1,41.11,25,16.11,16.11,0,0,1,25,41.11ZM40,15l3-1.64a.76.76,0,0,0,.35-.49l2.17,4.17-.82.45-1.5-2.88-.5.27,1,2-.82.45-1-2-.53.29,1.57,3-.82.45Zm5.2,10.07-.32,0c-1.08,0-2-1-2.2-2.39s.42-2.86,1.61-3.07l.31,0c1.06,0,2,1,2.2,2.39C47.09,23.61,46.41,24.9,45.22,25.11Zm-16.86-13H24.5a.32.32,0,1,0,0,.64h3.87a.32.32,0,0,0,0-.64Zm-6.45,5.79a.94.94,0,0,0,.7-.29.5.5,0,0,1,.31-.13c.1,0,.14,0,.14.16,0,.63-.16,1.91-.45,2.08H22.4a1,1,0,0,0-.52.54l-.06.11.09,0a2,2,0,0,0,.46.06,1.08,1.08,0,0,0,.84-.39,2.62,2.62,0,0,0,.59-1,4.15,4.15,0,0,1,1.45-2l.05-.05h0L25.26,17a4.15,4.15,0,0,1-1.45-2,2.63,2.63,0,0,0-.59-1,1.08,1.08,0,0,0-.84-.39,2,2,0,0,0-.46.06l-.09,0,.06.11a1,1,0,0,0,.52.54h.22c.3.17.45,1.44.45,2.08,0,.11,0,.16-.14.16a.5.5,0,0,1-.31-.13.94.94,0,0,0-.7-.29A.9.9,0,0,0,21,17v.1A.9.9,0,0,0,21.91,17.89Zm4.53-6.26a.47.47,0,1,0-.47-.47A.47.47,0,0,0,26.45,11.62Zm-1.81,0a.47.47,0,1,0-.47-.47A.47.47,0,0,0,24.64,11.62Z"/></svg>