<svg id="Layer_1" data-name="Layer 1" xmlns="http://www.w3.org/2000/svg" width="32" height="21.08" viewBox="0 0 32 21.08"><defs><style>.cls-1{fill:#fff;}</style></defs><title>car-ico</title><path class="cls-1" d="M31.78,13a.65.65,0,0,0-.57-.39H28.28a.65.65,0,0,0-.57.39,4.8,4.8,0,0,0-.17.59l-2-5.4a2.26,2.26,0,0,0-2.12-1.49H8.53A2.26,2.26,0,0,0,6.41,8.22l-2,5.4A4.72,4.72,0,0,0,4.29,13a.65.65,0,0,0-.57-.39H.79A.65.65,0,0,0,.22,13a2.88,2.88,0,0,0,0,2.22.65.65,0,0,0,.57.39H3.73l0,.12a1.5,1.5,0,0,0-1,1.42V27.1a.72.72,0,0,0,.72.72H7a.72.72,0,0,0,.72-.72V23.59H24.28V27.1a.72.72,0,0,0,.72.72h3.63a.72.72,0,0,0,.72-.72V17.19a1.5,1.5,0,0,0-1-1.42l0-.12h2.93a.65.65,0,0,0,.57-.39,2.88,2.88,0,0,0,0-2.22Zm-23-3.65H23.19l2.28,6.31H6.53Zm.4,10.75h-3a1.18,1.18,0,1,1,0-2.36h3a1.18,1.18,0,1,1,0,2.36Zm16.62,0h-3a1.18,1.18,0,0,1,0-2.36h3a1.18,1.18,0,0,1,0,2.36Zm0,0" transform="translate(0 -6.73)"/></svg>