<?xml version="1.0" encoding="utf-8"?>
<!-- Generator: Adobe Illustrator 25.2.1, SVG Export Plug-In . SVG Version: 6.00 Build 0)  -->
<svg version="1.1" id="Capa_1" xmlns="http://www.w3.org/2000/svg" xmlns:xlink="http://www.w3.org/1999/xlink" x="0px" y="0px"
	 viewBox="0 0 32 32" style="enable-background:new 0 0 32 32;" xml:space="preserve">
<style type="text/css">
	.st0{fill:#03727E;}
</style>
<g>
	<g>
		<path class="st0" d="M32,16L32,16L32,16L25.5,4.6l0,0l0,0h-6.7c-0.3-0.9-1-1.6-1.9-1.9V0H15v2.7c-0.9,0.3-1.6,1-1.9,1.9H6.5l0,0
			L0,16l0,0l0,0l0,0l0,0v1c0,3.6,2.9,6.5,6.5,6.5S13,20.6,13,17v-1l0,0l0,0l0,0l0,0L7.5,6.4h5.6c0.3,0.9,1,1.7,1.9,2v18.5h1.9V8.4
			c0.9-0.3,1.6-1,1.9-2h5.6L19,16l0,0l0,0l0,0l0,0v1c0,3.6,2.9,6.5,6.5,6.5S32,20.6,32,17V16L32,16L32,16z M10.8,16H2.2l4.3-7.7
			L10.8,16z M21.2,16l4.3-7.7l4.3,7.7H21.2z"/>
	</g>
</g>
<g>
	<g>
		<rect x="11.1" y="28.8" class="st0" width="9.7" height="3.3"/>
	</g>
</g>
</svg>
