<svg id="Layer_1" data-name="Layer 1" xmlns="http://www.w3.org/2000/svg" width="15.77" height="15.12" viewBox="0 0 15.77 15.12"><defs><style>.cls-1{fill:#f3901d;}</style></defs><title>dislike</title><path class="cls-1" d="M2.81,10.54H.75A.52.52,0,0,1,.23,10V.76A.51.51,0,0,1,.75.24H2.81a.51.51,0,0,1,.51.51V10A.52.52,0,0,1,2.81,10.54Z" transform="translate(-0.23 -0.24)"/><path class="cls-1" d="M10.75,10.54,11.29,12a2.67,2.67,0,0,1-.91,3.14,1.78,1.78,0,0,1-1.19.18.86.86,0,0,1-.52-.39,2.14,2.14,0,0,1-.16-.73,3.15,3.15,0,0,0-.87-1.67c-.8-.78-3.28-3-3.28-3V1.27h8.58a1.56,1.56,0,0,1,1.35,2.3,1.56,1.56,0,0,1,.51,2.06,1.56,1.56,0,0,1,.51,2.06,1.57,1.57,0,0,1-.59,2.85C14.63,10.55,10.75,10.54,10.75,10.54Z" transform="translate(-0.23 -0.24)"/></svg>