<svg id="Layer_1" data-name="Layer 1" xmlns="http://www.w3.org/2000/svg" width="24" height="24" viewBox="0 0 24 24"><defs><style>.cls-1{fill:#5597a1;}</style></defs><title>edit-round-ico</title><path class="cls-1" d="M12,0A12,12,0,1,0,24,12,12,12,0,0,0,12,0Zm5.7,8.64L16.56,9.78,14.24,7.46l-.88.88,2.32,2.32L10,16.35,7.67,14l-.88.88,2.32,2.32-.57.57h0a.45.45,0,0,1-.29.21l-2.16.48H6a.45.45,0,0,1-.44-.55L6,15.77a.45.45,0,0,1,.21-.29h0l9.16-9.16a.34.34,0,0,1,.49,0L17.7,8.15a.34.34,0,0,1,0,.49Zm0,0" transform="translate(0 0)"/></svg>