<svg id="Layer_1" data-name="Layer 1" xmlns="http://www.w3.org/2000/svg" width="15.77" height="15.12" viewBox="0 0 15.77 15.12"><defs><style>.cls-1{fill:#03727e;}</style></defs><title>like</title><path class="cls-1" d="M2.81,5.2H.75a.52.52,0,0,0-.51.51V15a.51.51,0,0,0,.51.51H2.81A.51.51,0,0,0,3.32,15V5.71A.52.52,0,0,0,2.81,5.2Z" transform="translate(-0.23 -0.37)"/><path class="cls-1" d="M10.75,5.2l.54-1.48A2.67,2.67,0,0,0,10.39.58,1.78,1.78,0,0,0,9.2.41.86.86,0,0,0,8.67.8a2.14,2.14,0,0,0-.16.73A3.15,3.15,0,0,1,7.63,3.2c-.8.78-3.28,3-3.28,3v8.24h8.58a1.56,1.56,0,0,0,1.35-2.3,1.56,1.56,0,0,0,.51-2.06A1.56,1.56,0,0,0,15.31,8a1.57,1.57,0,0,0-.59-2.85C14.63,5.18,10.75,5.2,10.75,5.2Z" transform="translate(-0.23 -0.37)"/></svg>