<svg id="Capa_1" data-name="Capa 1" xmlns="http://www.w3.org/2000/svg" width="20" height="15.04" viewBox="0 0 20 15.04"><defs><style>.cls-1{fill:#fff;}</style></defs><title>mail-white-ico</title><path class="cls-1" d="M20,12.5a2.48,2.48,0,0,1-.32,1.2L13.36,6.64l6.25-5.47A2.48,2.48,0,0,1,20,2.5ZM10.18,8.25l8.51-8A2.31,2.31,0,0,0,17.52,0H2.75A2.3,2.3,0,0,0,1.58.28Zm2.32-.71-2,1.76a.63.63,0,0,1-.82,0l-2-1.76-6.4,7.12A2.47,2.47,0,0,0,2.54,15h15a2.47,2.47,0,0,0,1.32-.38ZM.39,1.17A2.48,2.48,0,0,0,0,2.5v10a2.47,2.47,0,0,0,.32,1.2L6.64,6.64Z" transform="translate(-0.04)"/></svg>