<svg id="Capa_1" data-name="Capa 1" xmlns="http://www.w3.org/2000/svg" width="18" height="14.62" viewBox="0 0 18 14.62"><defs><style>.cls-1{fill:#fff;}</style></defs><title>twitter-ico</title><path class="cls-1" d="M19,4.45A7.38,7.38,0,0,1,16.88,5a3.72,3.72,0,0,0,1.63-2,7.36,7.36,0,0,1-2.35.9A3.69,3.69,0,0,0,9.77,6.41a3.83,3.83,0,0,0,.09.84A10.48,10.48,0,0,1,2.25,3.39,3.69,3.69,0,0,0,3.39,8.32a3.64,3.64,0,0,1-1.67-.46v0a3.7,3.7,0,0,0,3,3.63,3.81,3.81,0,0,1-1,.13,3.73,3.73,0,0,1-.7-.06,3.7,3.7,0,0,0,3.45,2.56,7.42,7.42,0,0,1-4.59,1.58,7.92,7.92,0,0,1-.88,0,10.45,10.45,0,0,0,5.66,1.66,10.43,10.43,0,0,0,10.5-10.5V6.36A7.44,7.44,0,0,0,19,4.45Zm0,0" transform="translate(-1 -2.72)"/></svg>