<svg id="Layer_1" data-name="Layer 1" xmlns="http://www.w3.org/2000/svg" width="13.5" height="17.75" viewBox="0 0 13.5 17.75"><defs><style>.cls-1{fill:#b8b8b8;}</style></defs><title>user-ico</title><path class="cls-1" d="M13.47,15.43c-.07-4.18-.61-5.36-4.78-6.14a2.5,2.5,0,0,1-2,.75,2.5,2.5,0,0,1-2-.75c-4.1.74-4.7,1.89-4.78,6V16s1,2,6.75,2,6.75-2,6.75-2v-.61Z" transform="translate(0 -0.25)"/><path class="cls-1" d="M6.75,8.94c2,0,3.57-1.95,3.57-4.34S9.8.25,6.75.25,3.18,2.2,3.18,4.6,4.78,8.94,6.75,8.94Z" transform="translate(0 -0.25)"/></svg>