<svg id="Layer_1" data-name="Layer 1" xmlns="http://www.w3.org/2000/svg" width="57" height="60.29" viewBox="0 0 57 60.29"><title>advantage-1</title><path d="M9.87,24.12a1.1,1.1,0,0,1,1.1,1.1h2.19A3.29,3.29,0,0,0,11,22.13v-1.3H8.77v1.3a3.28,3.28,0,0,0,1.1,6.38,1.1,1.1,0,1,1-1.1,1.1H6.58a3.29,3.29,0,0,0,2.19,3.09V34H11v-1.3a3.28,3.28,0,0,0-1.1-6.38,1.1,1.1,0,0,1,0-2.19Z"/><rect x="14.25" y="26.31" width="2.19" height="2.19"/><rect x="3.29" y="26.31" width="2.19" height="2.19"/><path d="M28.5,6.58a1.1,1.1,0,0,1,1.1,1.1h2.19A3.29,3.29,0,0,0,29.6,4.59V3.29H27.4v1.3A3.28,3.28,0,0,0,28.5,11a1.1,1.1,0,1,1-1.1,1.1H25.21a3.29,3.29,0,0,0,2.19,3.09v1.3H29.6v-1.3a3.28,3.28,0,0,0-1.1-6.38,1.1,1.1,0,0,1,0-2.19Z"/><rect x="32.88" y="8.77" width="2.19" height="2.19"/><rect x="21.92" y="8.77" width="2.19" height="2.19"/><path d="M48.23,40.56v-1.3a3.28,3.28,0,0,0-1.1-6.38,1.1,1.1,0,1,1,1.1-1.1h2.19a3.29,3.29,0,0,0-2.19-3.09v-1.3H46v1.3a3.28,3.28,0,0,0,1.1,6.37,1.1,1.1,0,1,1-1.1,1.1H43.85A3.29,3.29,0,0,0,46,39.26v1.3Z"/><rect x="51.52" y="32.89" width="2.19" height="2.19"/><rect x="40.56" y="32.89" width="2.19" height="2.19"/><path d="M29.6,50.43H42.75a5.49,5.49,0,0,0,5.48-5.48V43.78a9.87,9.87,0,1,0-2.19,0v1.16a3.29,3.29,0,0,1-3.29,3.29H29.6V42.75h1.1a5.49,5.49,0,0,0,5.48-5.48V35.08a1.1,1.1,0,0,0-1.1-1.1H32.88a5.42,5.42,0,0,0-3.29,1.12V31.79h1.1a5.49,5.49,0,0,0,5.48-5.48V24.12a1.1,1.1,0,0,0-1.1-1.1H32.88a5.42,5.42,0,0,0-3.29,1.12V19.67a9.86,9.86,0,1,0-2.19,0V22a5.42,5.42,0,0,0-3.29-1.12H21.92a1.1,1.1,0,0,0-1.1,1.1v2.19a5.49,5.49,0,0,0,5.48,5.48h1.1v3.32a5.42,5.42,0,0,0-3.29-1.12H21.92a1.1,1.1,0,0,0-1.1,1.1v2.19a5.49,5.49,0,0,0,5.48,5.48h1.1v7.67H12.06a1.1,1.1,0,0,1-1.1-1.1h1.1a5.49,5.49,0,0,0,5.48-5.48V39.46a1.1,1.1,0,0,0-1.1-1.1H14.25A5.42,5.42,0,0,0,11,39.49V37.21a9.87,9.87,0,1,0-2.19,0V38.4a5.42,5.42,0,0,0-3.29-1.12H3.29a1.1,1.1,0,0,0-1.1,1.1v2.19A5.49,5.49,0,0,0,7.67,46h1.1v1.1a3.29,3.29,0,0,0,3.29,3.29H27.4V58.1H2.19v2.19H54.81V58.1H29.6V50.43ZM39.46,34a7.67,7.67,0,1,1,7.67,7.67A7.67,7.67,0,0,1,39.46,34ZM8.77,43.85H7.67a3.29,3.29,0,0,1-3.29-3.29v-1.1h1.1a3.29,3.29,0,0,1,3.29,3.29Zm5.48-3.29h1.1v1.1a3.29,3.29,0,0,1-3.29,3.29H11v-1.1A3.29,3.29,0,0,1,14.25,40.56ZM2.19,27.41a7.67,7.67,0,1,1,7.67,7.67A7.67,7.67,0,0,1,2.19,27.41Zm25.21,11h-1.1A3.29,3.29,0,0,1,23,35.08V34h1.1a3.29,3.29,0,0,1,3.29,3.29Zm0-11h-1.1A3.29,3.29,0,0,1,23,24.12V23h1.1a3.29,3.29,0,0,1,3.29,3.29Zm5.48,8.77H34v1.1a3.29,3.29,0,0,1-3.29,3.29H29.6v-1.1A3.29,3.29,0,0,1,32.88,36.18Zm0-11H34v1.1a3.29,3.29,0,0,1-3.29,3.29H29.6V28.5A3.29,3.29,0,0,1,32.88,25.22ZM20.83,9.87a7.67,7.67,0,1,1,7.67,7.67A7.67,7.67,0,0,1,20.83,9.87Z"/><rect x="50.42" y="1.1" width="2.19" height="2.19"/><rect x="52.61" y="3.29" width="2.19" height="2.19"/><rect x="50.42" y="5.49" width="2.19" height="2.19"/><rect x="48.23" y="3.29" width="2.19" height="2.19"/><rect x="44.94" y="14.25" width="2.19" height="2.19"/><rect x="47.13" y="16.45" width="2.19" height="2.19"/><rect x="44.94" y="18.64" width="2.19" height="2.19"/><rect x="42.75" y="16.45" width="2.19" height="2.19"/><rect x="5.48" y="7.68" width="2.19" height="2.19"/><rect x="7.67" y="9.87" width="2.19" height="2.19"/><rect x="5.48" y="12.06" width="2.19" height="2.19"/><rect x="3.29" y="9.87" width="2.19" height="2.19"/></svg>