<svg id="Layer_1" data-name="Layer 1" xmlns="http://www.w3.org/2000/svg" width="23.98" height="23.32" viewBox="0 0 23.98 23.32"><defs><style>.cls-1{fill:#fff;}</style></defs><title>cart-small-ico</title><path class="cls-1" d="M22.63,6.47,6,4.92H5.7L5,1.69A.9.9,0,0,0,5,1.5a.94.94,0,0,0-.6-.55L1.19,0A.93.93,0,1,0,.67,1.79l2.65.78L6.51,17.95a.92.92,0,0,0,.92.8H21.15a.93.93,0,0,0,0-1.85h-13l-.44-2.13H21.39a1.46,1.46,0,0,0,1.46-1.12L24,8.09a1.41,1.41,0,0,0-1.32-1.62Zm0,0" transform="translate(0 0.03)"/><path class="cls-1" d="M11.92,21.44a1.85,1.85,0,1,1-1.85-1.85,1.85,1.85,0,0,1,1.85,1.85Zm0,0" transform="translate(0 0.03)"/><path class="cls-1" d="M20.76,21.44a1.85,1.85,0,1,1-1.85-1.85,1.85,1.85,0,0,1,1.85,1.85Zm0,0" transform="translate(0 0.03)"/></svg>