<?xml version="1.0" encoding="UTF-8"?>
<!-- Generator: Adobe Illustrator 22.0.1, SVG Export Plug-In . SVG Version: 6.00 Build 0)  -->
<svg version="1.1" id="Layer_1" xmlns="http://www.w3.org/2000/svg" xmlns:xlink="http://www.w3.org/1999/xlink" x="0px" y="0px" width="20px" height="16.3px" viewBox="0 0 20 16.3" style="enable-background:new 0 0 20 16.3;" xml:space="preserve">
<style type="text/css">
	.st0{fill:#71AD37;}
</style>
<path class="st0" d="M0,9c-0.2-0.2-0.2-0.4-0.2-0.5S-0.1,8,0,7.9l1.1-1.1c0.3-0.3,0.8-0.3,1.1,0l0.1,0.1l4.2,4.5  c0.2,0.2,0.4,0.2,0.5,0L17.3,0.7h0.1l0,0c0.3-0.3,0.8-0.3,1.1,0l1.1,1.1c0.3,0.3,0.3,0.8,0,1.1l0,0L7.3,15.7  c-0.2,0.2-0.3,0.2-0.5,0.2s-0.4-0.1-0.5-0.2l-6-6.5C0.2,9.2,0,9,0,9z"/>
</svg>