<svg id="Layer_1" data-name="Layer 1" xmlns="http://www.w3.org/2000/svg" width="26" height="21.29" viewBox="0 0 26 21.29"><defs><style>.cls-1{fill:#fff;}</style></defs><title>comment-white-ico</title><path class="cls-1" d="M13,0C5.85,0,0,4.06,0,8.93c0,3.25,3.25,6.18,6.5,7.8a5,5,0,0,1-3.24,4.55,10.68,10.68,0,0,0,8.28-3.41H13c7.16,0,13-4.06,13-8.94S20.15,0,13,0ZM8.12,11.38A1.54,1.54,0,0,1,6.5,9.75,1.54,1.54,0,0,1,7.94,8.12h.19A1.54,1.54,0,0,1,9.76,9.75a1.54,1.54,0,0,1-1.44,1.63h-.2Zm4.87,0a1.53,1.53,0,0,1-1.62-1.63,1.53,1.53,0,0,1,1.42-1.63H13a1.54,1.54,0,0,1,1.63,1.63,1.54,1.54,0,0,1-1.44,1.63H13Zm4.88,0a1.54,1.54,0,0,1-1.63-1.63,1.54,1.54,0,0,1,1.44-1.63h.19A1.54,1.54,0,0,1,19.5,9.75a1.54,1.54,0,0,1-1.44,1.63Z"/></svg>