<svg id="Layer_1" data-name="Layer 1" xmlns="http://www.w3.org/2000/svg" width="26" height="21.29" viewBox="0 0 26 21.29"><defs><style>.cls-1{fill:#03727e;}</style></defs><title>comment</title><path class="cls-1" d="M13,2C5.85,2,0,6.06,0,10.93c0,3.25,3.25,6.18,6.5,7.8a5,5,0,0,1-3.24,4.55,10.68,10.68,0,0,0,8.28-3.41H13c7.16,0,13-4.06,13-8.94S20.15,2,13,2ZM8.12,13.38A1.54,1.54,0,0,1,6.5,11.75a1.54,1.54,0,0,1,1.63-1.63,1.54,1.54,0,0,1,1.63,1.63,1.54,1.54,0,0,1-1.63,1.63Zm4.87,0a1.53,1.53,0,0,1-1.62-1.63A1.53,1.53,0,0,1,13,10.12a1.54,1.54,0,0,1,1.63,1.63A1.54,1.54,0,0,1,13,13.38Zm4.88,0a1.54,1.54,0,0,1-1.63-1.63,1.54,1.54,0,0,1,1.63-1.63,1.54,1.54,0,0,1,1.63,1.63,1.54,1.54,0,0,1-1.63,1.63Zm0,0" transform="translate(0 -2)"/></svg>