<svg id="Capa_1" data-name="Capa 1" xmlns="http://www.w3.org/2000/svg" width="18" height="18" viewBox="0 0 18 18"><defs><style>.cls-1{fill:#fff;}</style></defs><title>instagram-ico</title><path class="cls-1" d="M13.38,1H6.63A5.63,5.63,0,0,0,1,6.63v6.75A5.63,5.63,0,0,0,6.63,19h6.75A5.63,5.63,0,0,0,19,13.38V6.63A5.63,5.63,0,0,0,13.38,1Zm3.94,12.38a3.94,3.94,0,0,1-3.94,3.94H6.63a3.94,3.94,0,0,1-3.94-3.94V6.63A3.94,3.94,0,0,1,6.63,2.69h6.75a3.94,3.94,0,0,1,3.94,3.94Z" transform="translate(-1 -1)"/><path class="cls-1" d="M10,5.5A4.5,4.5,0,1,0,14.5,10,4.5,4.5,0,0,0,10,5.5Zm0,7.31A2.81,2.81,0,1,1,12.81,10,2.82,2.82,0,0,1,10,12.81Z" transform="translate(-1 -1)"/><circle class="cls-1" cx="13.84" cy="4.16" r="0.6"/></svg>