<?xml version="1.0" encoding="utf-8"?>
<!-- Generator: Adobe Illustrator 25.2.1, SVG Export Plug-In . SVG Version: 6.00 Build 0)  -->
<svg version="1.1" id="Layer_1" xmlns="http://www.w3.org/2000/svg" xmlns:xlink="http://www.w3.org/1999/xlink" x="0px" y="0px"
	 viewBox="0 0 8.3 18" style="enable-background:new 0 0 8.3 18;" xml:space="preserve">
<style type="text/css">
	.st0{fill:#FFFFFF;}
</style>
<path class="st0" d="M6.3,0c0.9-0.1,1.7,0.6,1.8,1.5c0,0.1,0,0.1,0,0.2C8.1,3,7,4,5.7,4C4.8,4.1,4,3.5,4,2.6c0-0.1,0-0.2,0-0.3
	C4,1,5.1,0,6.3,0z M2.6,18c-1,0-1.7-0.6-1-3.2l1.1-4.6c0.2-0.7,0.2-1,0-1c-0.8,0.2-1.6,0.5-2.3,1L0,9.4c2.3-2,5-3.1,6.1-3.1
	c1,0,1.1,1.1,0.6,2.9L5.5,14c-0.2,0.9-0.1,1.1,0.1,1.1c0.8-0.2,1.5-0.6,2.1-1.1l0.5,0.7C6.8,16.5,4.8,17.6,2.6,18z"/>
</svg>
