<svg id="Layer_1" data-name="Layer 1" xmlns="http://www.w3.org/2000/svg" width="8.27" height="18.01" viewBox="0 0 8.27 18.01">
  <defs>
    <style>
      .cls-1 {
        fill: #5597a1;
      }
    </style>
  </defs>
  <title>info-ico_blue</title>
  <path class="cls-1" d="M6.33,0A1.69,1.69,0,0,1,8.14,1.54v.22A2.37,2.37,0,0,1,5.73,4,1.61,1.61,0,0,1,4,2.58a2,2,0,0,1,0-.35A2.32,2.32,0,0,1,6.33,0ZM2.62,18c-1,0-1.65-.59-1-3.17l1.09-4.58c.19-.73.22-1,0-1a7.21,7.21,0,0,0-2.25,1L0,9.43c2.32-2,5-3.12,6.12-3.12s1.11,1.14.63,2.91L5.5,14c-.22.85-.13,1.15.09,1.15a4.85,4.85,0,0,0,2.14-1.09l.54.73A9.86,9.86,0,0,1,2.62,18Z" transform="translate(0 0.01)"/>
</svg>