<svg id="Capa_1" data-name="Capa 1" xmlns="http://www.w3.org/2000/svg" width="20" height="15.04" viewBox="0 0 20 15.04"><defs><style>.cls-1{fill:#5597a1;}</style></defs><title>mail-ico</title><path class="cls-1" d="M20,12.46a2.48,2.48,0,0,1-.32,1.2L13.32,6.6l6.25-5.47A2.48,2.48,0,0,1,20,2.46ZM10,7.88,18.65.28A2.47,2.47,0,0,0,17.46,0h-15A2.46,2.46,0,0,0,1.27.27Zm2.46-.38-2,1.76a.63.63,0,0,1-.82,0l-2-1.76-6.4,7.12A2.47,2.47,0,0,0,2.5,15h15a2.47,2.47,0,0,0,1.32-.38ZM.35,1.13A2.48,2.48,0,0,0,0,2.46v10a2.47,2.47,0,0,0,.32,1.2L6.6,6.6Z" transform="translate(0.04 0.04)"/></svg>