<svg id="Layer_1" data-name="Layer 1" xmlns="http://www.w3.org/2000/svg" width="36" height="45.12" viewBox="0 0 36 45.12"><defs><style>.cls-1{fill:#fff;}</style></defs><title>marker</title><path class="cls-1" d="M17.36,1.89A18,18,0,0,0,.33,23.3h0s0,.19.12.56a18.06,18.06,0,0,0,1.21,3.57c1.8,4.27,6,11.43,15.34,19.21a1.56,1.56,0,0,0,2,0c9.36-7.77,13.53-14.92,15.35-19.22a17.28,17.28,0,0,0,1.21-3.57c.08-.36.12-.56.12-.56h0A18,18,0,0,0,17.36,1.89ZM18,28.83a8.74,8.74,0,1,1,8.74-8.74A8.74,8.74,0,0,1,18,28.83Z" transform="translate(0 -1.88)"/></svg>