<?xml version="1.0" encoding="utf-8"?>
<!-- Generator: Adobe Illustrator 21.0.2, SVG Export Plug-In . SVG Version: 6.00 Build 0)  -->
<svg version="1.1" id="Layer_1" xmlns="http://www.w3.org/2000/svg" xmlns:xlink="http://www.w3.org/1999/xlink" x="0px" y="0px"
	 viewBox="0 0 28 28" style="enable-background:new 0 0 28 28;" xml:space="preserve">
<style type="text/css">
	.st0{fill:#5597A1;}
</style>
<g>
	<g>
		<path class="st0" d="M14,0C6.3,0,0,6.3,0,14c0,7.7,6.3,14,14,14c7.7,0,14-6.3,14-14C28,6.3,21.7,0,14,0L14,0z M21.4,20.4l-1.1,1.1
			c-0.2,0.2-0.8,0.3-0.8,0.3c-3.5,0-7-1.4-9.5-3.9c-2.5-2.5-3.9-5.9-3.9-9.5c0,0,0.1-0.6,0.3-0.8l1.1-1.1C8,6.2,8.8,6,9.3,6.2
			l0.2,0.1c0.6,0.2,1.1,0.8,1.3,1.4l0.6,2.1c0.2,0.6-0.1,1.4-0.5,1.8l-0.7,0.7c0.7,2.7,2.9,4.9,5.6,5.6l0.7-0.7
			c0.4-0.4,1.2-0.6,1.8-0.5l2.1,0.6c0.6,0.2,1.2,0.7,1.4,1.3l0.1,0.2C22,19.2,21.8,20,21.4,20.4L21.4,20.4z M21.4,20.4"/>
	</g>
</g>
</svg>
