<svg id="Layer_1" data-name="Layer 1" xmlns="http://www.w3.org/2000/svg" width="17.71" height="16.92" viewBox="0 0 17.71 16.92"><defs><style>.cls-1{fill:#b8b8b8;}</style></defs><title>phone-ico</title><path class="cls-1" d="M8.93,10.9C8.39,10.44,8,10,8,10s-.44-.36-.93-.86A13.46,13.46,0,0,1,5.9,7.82a1.9,1.9,0,0,1-.19-1.93A3.45,3.45,0,0,0,6.45,3.8,4.42,4.42,0,0,0,4.8,1.52C2.22-.67,1.42,1.29.38,2.65s1.54,5.84,5.73,9.94,8.54,5.65,9.81,4.51,3.17-2.08.8-4.5a4.42,4.42,0,0,0-2.39-1.48c-.7-.1-1.58.56-2,.88a1.9,1.9,0,0,1-1.94,0A13,13,0,0,1,8.93,10.9Z" transform="translate(-0.15 -0.54)"/></svg>