<?xml version="1.0" encoding="utf-8"?>
<!-- Generator: Adobe Illustrator 22.0.1, SVG Export Plug-In . SVG Version: 6.00 Build 0)  -->
<svg version="1.1" id="Layer_1" xmlns="http://www.w3.org/2000/svg" xmlns:xlink="http://www.w3.org/1999/xlink" x="0px" y="0px"
	 viewBox="0 0 511 511" style="enable-background:new 0 0 511 511;" xml:space="preserve">
<style type="text/css">
	.st0{fill:#FFFFFF;}
</style>
<path class="st0" d="M475.4,68.5L411.3,4.4c-2.8-2.8-6.6-4.4-10.6-4.4c-3.2,0-6.4,1.1-9,3C357.6,28.5,312,30.9,275.5,9
	c-6.9-4.1-11.4-6.8-11.4-6.8c-4.7-2.8-10.7-2.9-15.4,0L237.2,9C200.7,30.9,155.1,28.5,121,3c-6-4.5-14.3-3.9-19.6,1.4L37.3,68.5
	c-2.8,2.8-4.4,6.6-4.4,10.6c0,3.4,1.2,6.7,3.3,9.3c2.5,3.1,13.8,17.5,22.6,39.8h395c8.7-22.1,20-36.5,22.5-39.6
	c0.9-1.1,1.7-2.4,2.3-3.8C481,79.2,479.7,72.8,475.4,68.5z"/>
<path class="st0" d="M328.5,286.5c-13.9,0-25.1,11.3-25.1,25.1c0,13.9,11.3,25.1,25.1,25.1c13.8,0,25.1-11.3,25.1-25.1
	C353.6,297.8,342.4,286.5,328.5,286.5z"/>
<path class="st0" d="M184.2,286.5c-13.8,0-25.1,11.3-25.1,25.1c0,13.9,11.3,25.1,25.1,25.1c13.9,0,25.1-11.3,25.1-25.1
	C209.3,297.8,198.1,286.5,184.2,286.5z"/>
<path class="st0" d="M457.7,246c-15.3-32.7-16.6-62.8-12.3-87.8H67.3c4.4,24.9,3,55-12.3,87.8c-1.3,2.9-2.7,5.8-4.1,8.7
	c-18,38.5-18,82.7,0,121.2c18,38.5,51.8,66.9,92.9,77.8l57.9,15.5c17.7,4.7,32.6,16.8,40.9,33.2c2.1,4.2,5.9,7.4,10.5,8.3
	c6.8,1.4,13.4-2,16.4-8c8.3-16.5,23.3-28.8,41.1-33.5l57.9-15.5c41.1-11,74.9-39.3,92.9-77.8c18-38.5,18-82.7,0-121.2
	C460.4,251.8,459,248.9,457.7,246z M184.2,366.7c-30.4,0-55.1-24.7-55.1-55.1v-40.1c0-43.7,35.3-79.1,79.1-79.1c8.3,0,15,6.7,15,15
	s-6.7,15-15,15h0c-24.3,0-43.9,17.4-48.3,39.8c7.3-3.6,15.5-5.6,24.2-5.6c30.4,0,55.1,24.7,55.1,55.1
	C239.3,342,214.6,366.7,184.2,366.7z M328.5,366.7c-30.4,0-55.1-24.7-55.1-55.1v-40.1c0-43.7,35.3-79.1,79.1-79.1
	c8.3,0,15,6.7,15,15s-6.7,15-15,15h0c-24.3,0-43.9,17.4-48.3,39.8c7.3-3.6,15.5-5.6,24.2-5.6c30.4,0,55.1,24.7,55.1,55.1
	C383.6,342,358.9,366.7,328.5,366.7z"/>
</svg>
