<svg id="Layer_1" data-name="Layer 1" xmlns="http://www.w3.org/2000/svg" width="19.78" height="26.02" viewBox="0 0 19.78 26.02"><defs><style>.cls-1{fill:#fff;}</style></defs><title>user-ico</title><path class="cls-1" d="M19.74,22.23c-.1-6.12-.9-7.86-7-9a3.67,3.67,0,0,1-2.87,1.1A3.67,3.67,0,0,1,7,13.23C1,14.32.11,16,0,22v1.1S1.46,26,9.89,26s9.89-2.93,9.89-2.93v-.48q0-.21,0-.42Z"/><path class="cls-1" d="M9.89,12.72c2.89,0,5.23-2.85,5.23-6.36S14.36,0,9.89,0,4.66,2.85,4.66,6.36,7,12.72,9.89,12.72Z"/></svg>