<svg id="Capa_1" data-name="Capa 1" xmlns="http://www.w3.org/2000/svg" width="18" height="10.27" viewBox="0 0 18 10.27"><defs><style>.cls-1{fill:#fff;}</style></defs><title>vk-ico</title><path class="cls-1" d="M9.81,15.23h1.08a.91.91,0,0,0,.49-.21.78.78,0,0,0,.15-.47s0-1.44.65-1.66,1.51,1.4,2.41,2a1.7,1.7,0,0,0,1.2.36l2.4,0s1.26-.08.66-1.07a8,8,0,0,0-1.79-2.07c-1.51-1.4-1.31-1.17.51-3.59C18.67,7,19.11,6.13,19,5.74S18,5.47,18,5.47l-2.7,0a.62.62,0,0,0-.35.06.76.76,0,0,0-.24.29,15.67,15.67,0,0,1-1,2.11c-1.2,2-1.69,2.15-1.88,2-.46-.3-.34-1.19-.34-1.82,0-2,.3-2.81-.59-3A4.64,4.64,0,0,0,9.66,5a5.84,5.84,0,0,0-2.25.23c-.31.15-.55.49-.4.51a1.21,1.21,0,0,1,.8.4,2.61,2.61,0,0,1,.27,1.23S8.24,9.7,7.7,10c-.37.2-.87-.21-1.94-2.06a17.32,17.32,0,0,1-1-2,.8.8,0,0,0-.22-.3,1.12,1.12,0,0,0-.42-.17l-2.57,0s-.39,0-.53.18,0,.46,0,.46,2,4.71,4.29,7.09a6.18,6.18,0,0,0,4.47,2Z" transform="translate(-1 -5)"/></svg>